<svg xmlns="http://www.w3.org/2000/svg" xmlns:xlink="http://www.w3.org/1999/xlink" width="244" height="64" viewBox="0 0 244 64"><defs><style>.a{fill:#6d00d9;}.b,.c{fill:#fff;}.b{font-size:16px;font-family:Karla-Bold, Karla;font-weight:700;}.d{filter:url(#a);}</style><filter id="a" x="0" y="0" width="244" height="64" filterUnits="userSpaceOnUse"><feOffset dy="3" input="SourceAlpha"/><feGaussianBlur stdDeviation="3" result="b"/><feFlood flood-opacity="0.161"/><feComposite operator="in" in2="b"/><feComposite in="SourceGraphic"/></filter></defs><g transform="translate(-85 -410)"><g class="d" transform="matrix(1, 0, 0, 1, 85, 410)"><rect class="a" width="226" height="46" rx="20" transform="translate(9 6)"/></g><text class="b" transform="translate(147.033 444)"><tspan x="0" y="0">Sign In with Google</tspan></text><path class="c" d="M20.507,11.228c0,5.946-4.072,10.178-10.085,10.178a10.422,10.422,0,1,1,0-20.843A10.022,10.022,0,0,1,17.41,3.29L14.573,6.017c-3.711-3.58-10.611-.891-10.611,4.967a6.528,6.528,0,0,0,6.459,6.581,5.635,5.635,0,0,0,5.917-4.492H10.422V9.488h9.922A9.136,9.136,0,0,1,20.507,11.228Z" transform="translate(119.967 428.165)"/></g></svg>